<?xml version="1.0" encoding="utf-8"?>
<!-- Generator: Adobe Illustrator 16.0.0, SVG Export Plug-In . SVG Version: 6.00 Build 0)  -->
<!DOCTYPE svg PUBLIC "-//W3C//DTD SVG 1.1//EN" "http://www.w3.org/Graphics/SVG/1.1/DTD/svg11.dtd">
<svg version="1.1" id="Layer_1" xmlns="http://www.w3.org/2000/svg" xmlns:xlink="http://www.w3.org/1999/xlink" x="0px" y="0px"
	 width="310px" height="310px" viewBox="0 0 310 310" enable-background="new 0 0 310 310" xml:space="preserve">
<path fill-rule="evenodd" clip-rule="evenodd" fill="#B4C6D3" d="M170.84,65.427c6.801-0.076,14.596-0.458,20.643,0.48
	c2.504,0.388,6.127-0.55,7.08,1.32c-0.281,8.959-0.561,17.922-0.84,26.881c-0.08,0.04-0.16,0.08-0.24,0.12
	c-9.297-0.071-25.619-1.561-29.521,3.6c-3.029,4.006-2.281,12.211-2.281,19.201c0,2.815-0.605,11.331,0.24,13.201
	c7.76,0.04,15.521,0.08,23.281,0.12c2.703,0,7.355-0.658,9.361,0.36c-0.07,2.878-0.076,6.275-0.48,8.88
	c-0.533,3.441,0.254,6.732-0.48,9.721c-0.93,3.789,0.797,8.24-0.84,11.04c-10.359,0.04-20.723,0.08-31.082,0.12
	c0,20.519,0,41.044,0,61.562c0,5.32,0,10.642,0,15.961c0,2.261,0.34,5.375-0.6,6.721c-10.239-0.04-20.481-0.08-30.721-0.12
	c-0.12-0.08-0.24-0.16-0.36-0.24c0-20.039,0-40.084,0-60.123c0-5.56,0-11.12,0-16.681c0-2.188,0.432-5.641-0.36-7.2
	c-5.4,0-10.801,0-16.201,0c-2.207,0-5.005,0.419-6-0.84c0.04-7.2,0.08-14.401,0.12-21.601c0-1.442-0.312-6.783,0.36-7.32
	c1.02-0.54,3.357-0.24,4.8-0.24c5.089,0,12.538,0.827,17.041-0.24c0.578-1.676,0.24-4.624,0.24-6.72c0-8.08,0-16.162,0-24.241
	c3.42-15.535,8.884-23.983,21.721-30.001c3.34-1.566,7.422-2.33,11.28-3.24C168.445,65.566,169.791,66.012,170.84,65.427z"/>
<circle fill-rule="evenodd" clip-rule="evenodd" fill="none" stroke="#B4C6D3" stroke-width="10" stroke-miterlimit="10" cx="155" cy="155" r="150"/>
</svg>
