<?xml version="1.0" encoding="utf-8"?>
<!-- Generator: Adobe Illustrator 16.0.0, SVG Export Plug-In . SVG Version: 6.00 Build 0)  -->
<!DOCTYPE svg PUBLIC "-//W3C//DTD SVG 1.1//EN" "http://www.w3.org/Graphics/SVG/1.1/DTD/svg11.dtd">
<svg version="1.1" xmlns="http://www.w3.org/2000/svg" xmlns:xlink="http://www.w3.org/1999/xlink" x="0px" y="0px"
	 width="620.651px" height="305.246px" viewBox="0 0 620.651 305.246" enable-background="new 0 0 620.651 305.246"
	 xml:space="preserve">
<g id="Layer_1">
</g>
<g id="Layer_2">
	<g>
		<path fill="#EEF8F9" stroke="#B4C6D3" stroke-width="5" stroke-miterlimit="10" d="M129.485,198.61
			c-13.812-1.618-27.981-3.281-41.42-7.686c-2.941-0.964-7.557-1.653-9.6-4.895c-3.718-5.897,6.153-9.056,9.069-9.524
			c0,0-4.373,0.5-6.748,0c-18.604-3.917-37.081-9.756-54.544-19.18c-9.839-5.31-26.673-16.134-23.303-33.754
			c4.208-22.003,31.16-25.444,44.374-28.242c38.488-8.147,79.702-1.741,116.486,14.721c20.425,9.141,42.748,20.525,58.145,41.195
			c3.581,4.808,6.67,10.252,9.137,16.156c7.211,17.259,9.687,37.622-2.682,51.975c-3.138,3.639-7.227,5.684-11.285,6.797
			c0,0-12.162,3.334-18.497-9.332c0,0-17.736,2.83-47.891-0.836c0,0-47.563-5.414-21.21-16.392L129.485,198.61z"/>
		<path fill="none" stroke="#B4C6D3" stroke-width="5" stroke-miterlimit="10" d="M236.766,199.541
			c1.486,13.377-7.297,25.531-19.619,27.145c-9.859,1.293-18.816-6.336-20.005-17.039c-0.952-8.562,4.605-17.615,12.556-17.374
			c7.617,0.231,12.042,4.055,12.803,10.905c0.609,5.48-0.977,9.167-6.024,9.828c-4.038,0.527-7.868-1.584-8-6"/>
	</g>
	<text transform="matrix(1 0 0 1 249.564 248.248)" fill="#B4C6D3" font-family="'Dense-Regular'" font-size="300">taskr</text>
</g>
</svg>
